<svg width="32" height="28" viewBox="0 0 32 28" fill="none" xmlns="http://www.w3.org/2000/svg">
<mask id="mask0_29_813" style="mask-type:luminance" maskUnits="userSpaceOnUse" x="11" y="5" width="21" height="23">
<path d="M11.1426 5.28931H31.0911V28H11.1426V5.28931Z" fill="white"/>
</mask>
<g mask="url(#mask0_29_813)">
<path d="M31.0324 27.3624L29.0115 21.4637C29.2145 21.1089 29.3965 20.745 29.5574 20.3706C29.7182 19.9962 29.8581 19.6143 29.9769 19.2233C30.0941 18.8339 30.1904 18.4384 30.2641 18.037C30.3392 17.6355 30.3904 17.2325 30.4189 16.8251C30.4475 16.4191 30.4535 16.0116 30.4355 15.6041C30.4189 15.1966 30.3783 14.7922 30.3167 14.3892C30.2535 13.9862 30.1693 13.5893 30.0611 13.1953C29.9543 12.8014 29.825 12.4164 29.6746 12.0375C29.5243 11.6586 29.3529 11.2887 29.1604 10.9294C28.9694 10.5685 28.7574 10.2212 28.5259 9.88435C28.2958 9.54904 28.0462 9.22727 27.7786 8.91902C27.5109 8.61078 27.2282 8.31758 26.9275 8.04091C26.6268 7.76424 26.3125 7.50562 25.9833 7.26354C25.654 7.02296 25.3126 6.80042 24.9593 6.59744C24.6044 6.39445 24.2406 6.21101 23.8662 6.04862C23.4918 5.88622 23.1083 5.74488 22.7174 5.6261C22.8257 5.86217 22.9264 6.10124 23.0196 6.34332C23.1113 6.58691 23.197 6.832 23.2752 7.0801C23.3534 7.32669 23.4226 7.5778 23.4857 7.8289C23.5474 8.08151 23.603 8.33562 23.6496 8.59124C23.6962 8.84535 23.7353 9.10247 23.7654 9.36109C23.797 9.61821 23.8195 9.87683 23.8346 10.1355C23.8496 10.3956 23.8556 10.6542 23.8556 10.9143C23.8541 11.1745 23.8451 11.4331 23.8286 11.6932C23.8105 11.9518 23.785 12.2104 23.7519 12.4676C23.7188 12.7247 23.6782 12.9818 23.6301 13.2359C23.5805 13.4915 23.5233 13.7456 23.4602 13.9967C23.3955 14.2478 23.3234 14.4975 23.2422 14.744C23.1625 14.9921 23.0753 15.2357 22.9805 15.4778C22.8858 15.7199 22.7836 15.9575 22.6738 16.1935C22.564 16.4296 22.4467 16.6612 22.3219 16.8897C22.1986 17.1168 22.0678 17.3423 21.9295 17.5618C21.7912 17.7814 21.6468 17.9979 21.4965 18.2099C21.3446 18.4204 21.1867 18.6264 21.0228 18.8279C20.8589 19.0309 20.689 19.2263 20.5131 19.4173C20.3372 19.6083 20.1552 19.7947 19.9673 19.9751C19.7793 20.1541 19.5869 20.3285 19.3884 20.4969C19.1899 20.6653 18.9869 20.8262 18.7779 20.9826C18.5704 21.1374 18.3569 21.2863 18.1404 21.4291C17.9224 21.572 17.7013 21.7073 17.4743 21.8366C17.2487 21.9659 17.0187 22.0877 16.7856 22.202C16.5526 22.3163 16.315 22.4245 16.0759 22.5253C15.8353 22.6245 15.5932 22.7177 15.3467 22.8034C15.1016 22.8876 14.8535 22.9658 14.6024 23.0365C14.3513 23.1057 14.0986 23.1688 13.8445 23.223C13.5904 23.2771 13.3348 23.3237 13.0777 23.3628C12.8206 23.4019 12.5619 23.432 12.3033 23.4545C12.0432 23.4786 11.7831 23.4921 11.5229 23.4996C11.9349 23.9387 12.38 24.3416 12.8582 24.707C13.3363 25.0724 13.8415 25.3972 14.3723 25.6799C14.9046 25.961 15.4564 26.1986 16.0263 26.3911C16.5977 26.582 17.1811 26.7249 17.775 26.8211C18.3704 26.9173 18.9689 26.9625 19.5703 26.9594C20.1733 26.9564 20.7717 26.9038 21.3656 26.8031C21.9581 26.7008 22.54 26.5505 23.1083 26.3535C23.6782 26.1565 24.227 25.9129 24.7548 25.6257L30.5152 27.8586C30.6715 27.9188 30.8099 27.8902 30.9317 27.7744C31.052 27.6586 31.0865 27.5203 31.0324 27.3624Z" fill="url(#paint0_linear_29_813)"/>
</g>
<path d="M22.1085 10.8512C22.107 10.4332 22.0814 10.0167 22.0318 9.60173C21.9822 9.18674 21.9085 8.77625 21.8108 8.36877C21.7146 7.96279 21.5943 7.56283 21.4514 7.17038C21.3086 6.77794 21.1432 6.39452 20.9552 6.02011C20.7688 5.64722 20.5598 5.28484 20.3312 4.9345C20.1027 4.58566 19.8531 4.25035 19.5854 3.92858C19.3178 3.60681 19.0321 3.30157 18.7299 3.01288C18.4261 2.72569 18.1089 2.45503 17.7736 2.20243C17.4398 1.95132 17.0924 1.71826 16.7316 1.50625C16.3707 1.29424 15.9993 1.10328 15.6159 0.934875C15.234 0.764966 14.8415 0.619116 14.4431 0.494315C14.0431 0.369515 13.6371 0.268772 13.2251 0.190584C12.8146 0.112396 12.3996 0.0582652 11.9816 0.0281929C11.5636 -0.00187952 11.1456 -0.007894 10.7276 0.0101494C10.3096 0.0281929 9.89311 0.0702943 9.47961 0.13495C9.06612 0.201109 8.65713 0.289823 8.25416 0.402594C7.85119 0.515365 7.45574 0.650691 7.06781 0.808571C6.67987 0.966451 6.30247 1.14538 5.93558 1.34687C5.5687 1.54835 5.21535 1.77089 4.87252 2.01297C4.5312 2.25505 4.20492 2.51518 3.89367 2.79485C3.58242 3.07453 3.28921 3.37074 3.01104 3.68349C2.73438 3.99775 2.47576 4.32554 2.23668 4.66836C1.99761 5.01119 1.77808 5.36604 1.5796 5.73443C1.38263 6.10281 1.2052 6.48022 1.05033 6.86966C0.895453 7.25759 0.764638 7.65304 0.654874 8.05752C0.546613 8.46049 0.460907 8.86947 0.399259 9.28297C0.337611 9.69496 0.298516 10.1115 0.284984 10.5295C0.271451 10.946 0.281976 11.364 0.315056 11.7805C0.349639 12.197 0.406777 12.6105 0.489476 13.0195C0.570671 13.4299 0.675925 13.8329 0.805236 14.2314C0.933043 14.6283 1.08341 15.0178 1.25632 15.3982C1.43074 15.7786 1.62471 16.1485 1.84123 16.5064L1.14355 18.5453L0.0248577 21.8247C-0.0292729 21.9825 0.00531067 22.1209 0.1256 22.2366C0.24589 22.3524 0.385726 22.381 0.542103 22.3208L3.74631 21.0789L5.73109 20.3075C7.10991 21.1029 8.59398 21.5735 10.1803 21.7209C10.5141 21.748 10.8524 21.766 11.1937 21.766C11.5516 21.766 11.908 21.748 12.2643 21.7134C12.6207 21.6773 12.974 21.6247 13.3259 21.5555C13.6762 21.4863 14.0235 21.3991 14.3664 21.2954C14.7077 21.1916 15.0445 21.0713 15.3753 20.9345C15.7061 20.7977 16.0294 20.6443 16.3451 20.4759C16.6609 20.3075 16.9661 20.1241 17.2638 19.9256C17.5616 19.7271 17.8488 19.5136 18.1254 19.2865C18.4021 19.0595 18.6667 18.8204 18.9193 18.5678C19.1719 18.3152 19.411 18.0506 19.6381 17.7739C19.8651 17.4972 20.0786 17.21 20.2771 16.9123C20.4756 16.6161 20.6575 16.3094 20.8259 15.9936C20.9943 15.6794 21.1477 15.3561 21.283 15.0268C21.4198 14.696 21.5401 14.3592 21.6439 14.0179C21.7461 13.675 21.8333 13.3292 21.9025 12.9789C21.9717 12.6285 22.0228 12.2752 22.0574 11.9203C22.092 11.564 22.1085 11.2076 22.1085 10.8512ZM12.565 13.3638C12.565 13.4796 12.5425 13.5893 12.4989 13.6961C12.4553 13.8013 12.3921 13.8961 12.3109 13.9773C12.2297 14.0585 12.135 14.1201 12.0297 14.1637C11.923 14.2088 11.8117 14.2299 11.6975 14.2299H6.17015C6.05587 14.2284 5.94761 14.2058 5.84236 14.1607C5.73711 14.1156 5.64538 14.0524 5.56569 13.9713C5.486 13.8916 5.42435 13.7983 5.38075 13.6931C5.33865 13.5878 5.31609 13.4781 5.31609 13.3638V13.2811C5.31609 13.1668 5.33865 13.0555 5.38225 12.9503C5.42586 12.8435 5.48901 12.7503 5.5702 12.6691C5.6514 12.5879 5.74613 12.5263 5.85288 12.4827C5.95814 12.4391 6.0694 12.418 6.18368 12.418H11.6975C11.8117 12.418 11.923 12.4391 12.0297 12.4827C12.135 12.5263 12.2297 12.5879 12.3109 12.6691C12.3921 12.7503 12.4553 12.8435 12.4989 12.9503C12.5425 13.0555 12.565 13.1668 12.565 13.2811V13.3638ZM16.7406 9.55813C16.7406 9.6724 16.718 9.78367 16.6744 9.88893C16.6308 9.99568 16.5677 10.0889 16.4865 10.1701C16.4053 10.2513 16.3106 10.3144 16.2053 10.3581C16.0985 10.4017 15.9873 10.4242 15.873 10.4242H5.98821C5.87243 10.4242 5.76267 10.4017 5.65591 10.3581C5.54915 10.3144 5.45593 10.2513 5.37473 10.1701C5.29354 10.0889 5.23039 9.99568 5.18678 9.88893C5.14318 9.78367 5.12062 9.6724 5.12062 9.55813V9.47693C5.12062 9.36266 5.14318 9.25289 5.18828 9.14764C5.23189 9.04239 5.29504 8.94916 5.37624 8.86797C5.45743 8.78828 5.55216 8.72512 5.65741 8.68152C5.76267 8.63791 5.87393 8.61686 5.98821 8.61686H15.873C15.9873 8.61686 16.0985 8.63942 16.2053 8.68302C16.3106 8.72663 16.4053 8.78978 16.4865 8.87098C16.5677 8.95217 16.6308 9.0454 16.6744 9.15065C16.718 9.25741 16.7406 9.36717 16.7406 9.48295V9.55813Z" fill="url(#paint1_linear_29_813)"/>
<defs>
<linearGradient id="paint0_linear_29_813" x1="8.6192" y1="16.7577" x2="20.0275" y2="42.4151" gradientUnits="userSpaceOnUse">
<stop stop-color="#E24B13"/>
<stop offset="1" stop-color="#FED014"/>
</linearGradient>
<linearGradient id="paint1_linear_29_813" x1="-3.2864" y1="11.1757" x2="7.2442" y2="37.8741" gradientUnits="userSpaceOnUse">
<stop stop-color="#E24B13"/>
<stop offset="1" stop-color="#FED014"/>
</linearGradient>
</defs>
</svg>
