<svg width="34" height="32" viewBox="0 0 34 32" fill="none" xmlns="http://www.w3.org/2000/svg">
<mask id="mask0_29_788" style="mask-type:luminance" maskUnits="userSpaceOnUse" x="3" y="7" width="27" height="25">
<path d="M3.9043 7.42981H29.6185V31.938H3.9043V7.42981Z" fill="white"/>
</mask>
<g mask="url(#mask0_29_788)">
<path d="M29.4513 18.501L17.313 7.69616C16.997 7.41492 16.5255 7.41492 16.2112 7.69616L4.07129 18.501C3.98195 18.5804 3.93066 18.6946 3.93066 18.8153V31.5227C3.93066 31.7543 4.11761 31.9413 4.34757 31.9413H12.8793C13.1092 31.9413 13.2962 31.7543 13.2962 31.5227V23.4063C13.2962 22.4798 14.0406 21.7287 14.9605 21.7287H18.5638C19.4819 21.7287 20.2264 22.4798 20.2264 23.4063V31.5227C20.2264 31.7543 20.4134 31.9413 20.6433 31.9413H29.1767C29.405 31.9413 29.5919 31.7543 29.5919 31.5227V18.8153C29.5919 18.6946 29.5406 18.5804 29.4513 18.501Z" fill="url(#paint0_linear_29_788)"/>
</g>
<mask id="mask1_29_788" style="mask-type:luminance" maskUnits="userSpaceOnUse" x="0" y="0" width="34" height="17">
<path d="M0 0H33.4584V16.4298H0V0Z" fill="white"/>
</mask>
<g mask="url(#mask1_29_788)">
<path d="M32.7966 13.3691L18.9592 1.11506C17.7019 0.00331228 15.8209 0.00331228 14.5652 1.11506L0.727851 13.3691C0.044587 13.9746 0.0114991 15.0335 0.653403 15.6803C1.24071 16.2709 2.18206 16.3007 2.80411 15.7482L15.662 4.33782C16.2907 3.78029 17.2321 3.78029 17.8607 4.33782L30.7187 15.7482C31.3424 16.3007 32.2837 16.2709 32.8694 15.6803C33.5113 15.0335 33.4782 13.973 32.7966 13.3691Z" fill="url(#paint1_linear_29_788)"/>
</g>
<defs>
<linearGradient id="paint0_linear_29_788" x1="0.116152" y1="19.7132" x2="11.1431" y2="49.3701" gradientUnits="userSpaceOnUse">
<stop stop-color="#E24B13"/>
<stop offset="1" stop-color="#FED014"/>
</linearGradient>
<linearGradient id="paint1_linear_29_788" x1="-4.73293" y1="8.21248" x2="-0.78169" y2="29.3697" gradientUnits="userSpaceOnUse">
<stop stop-color="#E24B13"/>
<stop offset="1" stop-color="#FED014"/>
</linearGradient>
</defs>
</svg>
