<svg width="34" height="29" viewBox="0 0 34 29" fill="none" xmlns="http://www.w3.org/2000/svg">
<mask id="mask0_29_828" style="mask-type:luminance" maskUnits="userSpaceOnUse" x="0" y="0" width="34" height="29">
<path d="M0.763672 0H34V28.2591H0.763672V0Z" fill="white"/>
</mask>
<g mask="url(#mask0_29_828)">
<path d="M33.003 11.4804C32.6475 10.9515 32.1533 10.6566 31.5203 10.6046C31.4769 10.6046 31.4249 10.6046 31.3815 10.6046H28.0258L25.6846 2.77462C25.1817 1.17914 24.5401 0.494122 23.5169 0.494122H22.2249C22.1642 0.181963 21.9821 0.0258847 21.6613 0.0172119H12.6C12.2791 0.0258847 12.097 0.181963 12.0363 0.494122H10.4929C9.4697 0.494122 8.82804 1.17914 8.32512 2.76595L5.98392 10.5959H2.85366C2.80163 10.5959 2.75828 10.5959 2.70625 10.5959C2.07326 10.6566 1.57901 10.9428 1.23216 11.4717C0.841966 12.044 0.746585 12.6683 0.937348 13.336L4.89137 26.5074C5.38562 28.1115 6.03595 28.7879 7.05914 28.7879H27.1761C28.1819 28.7879 28.8496 28.0855 29.3352 26.5161L33.2892 13.336C33.4886 12.677 33.3932 12.0527 33.003 11.4804ZM9.9206 2.51449C10.0767 2.05492 10.4062 1.81213 10.9004 1.79479H12.0277V2.09827C12.0277 2.26303 12.0884 2.39309 12.2011 2.50582C12.3138 2.62721 12.4526 2.67924 12.6086 2.67924H21.6613C21.826 2.67924 21.9561 2.62721 22.0688 2.50582C22.1902 2.39309 22.2422 2.26303 22.2422 2.09827V1.84681H23.1353C23.7163 1.89017 24.0631 2.20233 24.1845 2.77462L26.3003 10.5786H7.70947L9.9206 2.51449Z" fill="white"/>
</g>
</svg>
