<svg width="30" height="30" viewBox="0 0 30 30" fill="none" xmlns="http://www.w3.org/2000/svg">
<mask id="mask0_29_833" style="mask-type:luminance" maskUnits="userSpaceOnUse" x="0" y="0" width="30" height="30">
<path d="M0 0H29.9153V29.7418H0V0Z" fill="white"/>
</mask>
<g mask="url(#mask0_29_833)">
<path d="M29.0044 25.7705L24.877 22.3281V13.1627C24.877 8.52368 21.7641 4.59568 17.5152 3.34704C17.5326 3.2083 17.5586 3.06957 17.5586 2.92216C17.5586 1.30933 16.2493 0 14.6364 0C13.0236 0 11.7143 1.30933 11.7143 2.92216C11.7143 3.06957 11.7403 3.2083 11.7576 3.34704C7.50879 4.59568 4.39587 8.51501 4.39587 13.1627V22.3281L0.268434 25.7705C0.0950095 25.9092 0.00830078 26.1173 0.00830078 26.3341V27.0625C0.00830078 27.4613 0.329131 27.7908 0.736672 27.7908H28.5275C28.9351 27.7908 29.2646 27.4613 29.2646 27.0625V26.3341C29.2646 26.1173 29.1605 25.9092 29.0044 25.7705ZM13.1884 3.04355C13.1884 3.00887 13.171 2.96551 13.171 2.92216C13.171 2.11575 13.83 1.45674 14.6364 1.45674C15.4428 1.45674 16.0932 2.11575 16.0932 2.92216C16.0932 2.96551 16.0932 3.00887 16.0845 3.04355C15.6076 2.98285 15.122 2.92216 14.6278 2.92216C14.1335 2.92216 13.6566 2.97418 13.1884 3.04355Z" fill="white"/>
</g>
</svg>
