<svg width="31" height="29" viewBox="0 0 31 29" fill="none" xmlns="http://www.w3.org/2000/svg">
<mask id="mask0_29_764" style="mask-type:luminance" maskUnits="userSpaceOnUse" x="0" y="0" width="31" height="29">
<path d="M0 0H30.3301V29H0V0Z" fill="white"/>
</mask>
<g mask="url(#mask0_29_764)">
<mask id="mask1_29_764" style="mask-type:luminance" maskUnits="userSpaceOnUse" x="0" y="0" width="31" height="29">
<path d="M16.0349 0.628528L18.3298 7.71774C18.8414 9.31099 20.3177 10.378 21.9987 10.378H29.4241C29.8187 10.378 30.1695 10.6411 30.2865 11.0066C30.4034 11.3866 30.2718 11.7959 29.9503 12.0297L23.9427 16.4002C22.598 17.3941 22.0279 19.1336 22.5395 20.7268L24.849 27.816C24.9659 28.1815 24.8343 28.5907 24.5128 28.8246C24.1912 29.0585 23.7673 29.0585 23.4457 28.8246L17.4382 24.4541C16.0788 23.4602 14.2517 23.4602 12.9069 24.4541L6.88475 28.8246C6.57779 29.0585 6.13928 29.0585 5.81771 28.8246C5.49614 28.5907 5.36459 28.1815 5.49614 27.816L7.791 20.7268C8.30259 19.1336 7.73253 17.3941 6.38777 16.4002L0.380209 12.0297C0.0586349 11.7959 -0.0729156 11.3866 0.0440199 11.0066C0.160955 10.6411 0.511761 10.378 0.906419 10.378H8.33182C10.0128 10.378 11.4891 9.31099 12.0007 7.71774L14.2955 0.628528C14.4271 0.248486 14.7779 0 15.1725 0C15.5672 0 15.9034 0.248486 16.0349 0.628528Z" fill="white"/>
</mask>
<g mask="url(#mask1_29_764)">
<path d="M0 0H30.3301V29H0V0Z" fill="#858383"/>
</g>
</g>
</svg>
