<svg width="27" height="27" viewBox="0 0 27 27" fill="none" xmlns="http://www.w3.org/2000/svg">
<path d="M13.4999 5.55359C10.9527 5.55359 8.87402 7.62377 8.87402 10.1701C8.87402 12.7266 10.9527 14.7968 13.4999 14.7968C16.0471 14.7968 18.1257 12.7266 18.1257 10.1701C18.1257 7.62377 16.0471 5.55359 13.4999 5.55359Z" fill="#858383"/>
<mask id="mask0_29_780" style="mask-type:luminance" maskUnits="userSpaceOnUse" x="0" y="0" width="27" height="28">
<path d="M0 0H26.9997V27.0006H0V0Z" fill="white"/>
</mask>
<g mask="url(#mask0_29_780)">
<path d="M13.4905 0.00939941C6.05691 0.00939941 0 6.05782 0 13.5008C0 17.6403 1.8809 21.3486 4.82363 23.8237C4.82363 23.8237 4.82363 23.8237 4.82363 23.833C7.17305 25.8039 10.1973 26.9913 13.4905 26.9913C18.1885 26.9913 22.4732 24.6156 24.9567 20.6289C26.2978 18.4865 26.9997 16.0293 26.9997 13.5008C26.9997 10.9714 26.2978 8.5057 24.9567 6.37272C22.4732 2.38514 18.1885 0.00939941 13.4905 0.00939941ZM23.4357 19.6748C23.0037 20.3674 22.5004 20.9794 21.9512 21.5557C20.583 18.748 17.6759 16.8755 14.4632 16.8755H12.5365C10.3051 16.8755 8.20772 17.7489 6.63238 19.3234C5.97542 19.9719 5.45342 20.7366 5.04855 21.5642C3.04203 19.4677 1.79942 16.6328 1.79942 13.5008C1.79942 7.05599 7.04659 1.80967 13.4905 1.80967C17.5681 1.80967 21.2764 3.87051 23.4357 7.32675C24.5884 9.18049 25.2003 11.3135 25.2003 13.5008C25.2003 15.6872 24.5884 17.8202 23.4357 19.6748Z" fill="#858383"/>
</g>
</svg>
